#!OML:ASF Y:\EmotionMaleHayes\Project 1\Capture day 1\Session 1\Male1.ASF
:FULLY-SPECIFIED
:DEGREES
1195
root -24.0172 15.6525 6.33933 -540.369 30.5313 175.141
lowerback 12.9963 3.82808 -0.742331
upperback 5.02354 5.41058 0.318113
thorax -2.08307 2.86334 -0.0464726
lowerneck -18.7534 -7.27869 -2.77424
upperneck 16.0637 -10.8528 9.05864
head 8.79145 -4.22757 2.08325
rclavicle -4.41302e-014 8.11041e-014
rhumerus -34.618 13.5818 -94.2136
rradius 78.4804
rwrist -10.8101
rhand -20.7102 -30.3084
rfingers 7.12502
rthumb 5.65418 -60.213
lclavicle -4.41302e-014 8.11041e-014
lhumerus -56.1166 -6.95481 93.5355
lradius 30.1475
lwrist 5.78116
lhand -25.6794 -22.646
lfingers 7.12502
lthumb 0.855346 7.33205
rfemur 6.66901 24.8226 6.10077
rtibia 43.9347
rfoot -8.20389 15.3622
rtoes 36.5019
lfemur -24.5012 6.36156 -3.77155
ltibia 29.4716
lfoot -7.85449 -1.12007
ltoes -39.4588
1196
root -24.1303 15.6889 6.22812 -540.688 31.6596 174.384
lowerback 13.0011 3.66239 -1.59878
upperback 5.08183 5.08199 0.00794789
thorax -2.06321 2.69657 0.158472
lowerneck -18.6386 -7.30326 -3.01781
upperneck 15.5695 -10.8401 9.31479
head 8.63277 -4.23937 2.21309
rclavicle -1.70955e-014 5.56597e-015
rhumerus -34.7047 11.6914 -94.1626
rradius 74.0657
rwrist -9.75084
rhand -21.737 -31.6763
rfingers 7.12502
rthumb 4.66274 -61.605
lclavicle -1.70955e-014 5.56597e-015
lhumerus -54.434 -7.70818 92.3688
lradius 29.9629
lwrist 5.53532
lhand -26.6337 -21.392
lfingers 7.12502
lthumb -0.0663028 8.58774
rfemur 5.53696 24.5039 4.92098
rtibia 45.5553
rfoot -8.95796 12.9853
rtoes 36.8481
lfemur -24.0088 7.14866 -4.90554
ltibia 29.3622
lfoot -7.69969 -1.28698
ltoes -38.9381
1197
root -24.2337 15.7463 6.12888 -541.039 33.037 174.015
lowerback 13.3625 3.59197 -2.25584
upperback 5.11018 4.90115 -0.174564
thorax -2.25898 2.6063 0.336582
lowerneck -18.8294 -7.38113 -3.22596
upperneck 15.4489 -10.9123 9.4174
head 8.64841 -4.2789 2.2641
rclavicle 1.63003e-014 -2.54444e-014
rhumerus -34.5783 9.79466 -93.9303
rradius 69.254
rwrist -8.97638
rhand -22.0923 -32.7188
rfingers 7.12502
rthumb 4.31962 -62.6548
lclavicle 1.63003e-014 -2.54444e-014
lhumerus -52.6186 -8.35608 90.8815
lradius 29.3046
lwrist 5.82479
lhand -27.0934 -21.8247
lfingers 7.12502
lthumb -0.510327 8.15445
rfemur 4.1898 23.3678 4.17716
rtibia 47.1514
rfoot -10.3277 9.94862
rtoes 30.9419
lfemur -23.0497 7.82831 -5.51515
ltibia 29.0703
lfoot -7.70989 -0.892118
ltoes -38.6558
1198
root -24.337 15.8102 6.02828 -541.346 34.3969 173.784
lowerback 13.532 3.48886 -2.53972
upperback 5.24388 4.73526 -0.456817
thorax -2.20192 2.53019 0.222074
lowerneck -19.1803 -7.45829 -3.14841
upperneck 15.348 -11.0303 9.36913
head 8.67605 -4.33169 2.20859
rclavicle -7.196e-014 1.51076e-014
rhumerus -33.9768 7.55606 -93.5282
rradius 64.1623
rwrist -7.54411
rhand -21.0365 -33.6061
rfingers 7.12502
rthumb 5.33914 -63.5188
lclavicle -7.196e-014 1.51076e-014
lhumerus -50.7551 -9.26776 89.284
lradius 28.8065
lwrist 6.68618
lhand -28.0531 -22.3533
lfingers 7.12502
lthumb -1.4372 7.62161
rfemur 3.18376 22.442 3.81244
rtibia 48.4697
rfoot -11.5642 6.35809
rtoes 27.9072
lfemur -21.956 8.37595 -6.01875
ltibia 28.6501
lfoot -8.05033 -0.272717
ltoes -38.862
1199
root -24.4414 15.8774 5.91969 -541.913 35.6402 173.117
lowerback 13.6887 3.39229 -2.98347
upperback 5.26952 4.54407 -0.865383
thorax -2.2513 2.43942 0.0655972
lowerneck -19.3029 -7.56846 -3.09397
upperneck 15.2866 -11.1863 9.30783
head 8.6796 -4.40974 2.15308
rclavicle 9.14409e-015 -1.59028e-015
rhumerus -33.6554 5.38371 -93.1932
rradius 59.28
rwrist -7.75407
rhand -22.4796 -35.4419
rfingers 7.12502
rthumb 3.94566 -65.3851
lclavicle 9.14409e-015 -1.59028e-015
lhumerus -49.2659 -10.0898 87.7123
lradius 28.6784
lwrist 7.28732
lhand -29.6706 -22.1477
lfingers 7.12502
lthumb -2.99932 7.81098
rfemur 2.2821 21.1928 2.94292
rtibia 49.5649
rfoot -12.7015 2.79603
rtoes 27.1633
lfemur -20.816 8.65656 -7.00731
ltibia 28.0868
lfoot -8.35882 0.240057
ltoes -37.1858
1200
root -24.5457 15.9539 5.8139 -542.435 36.9651 172.487
lowerback 13.7834 3.33221 -3.7062
upperback 5.23932 4.36022 -0.974203
thorax -2.36815 2.34317 0.375986
lowerneck -19.3293 -7.63977 -3.44727
upperneck 15.2494 -11.1921 9.28644
head 8.6896 -4.44347 2.1988
rclavicle 1.59028e-014 2.38542e-015
rhumerus -33.6261 3.8657 -92.4744
rradius 54.7191
rwrist -8.71769
rhand -24.9904 -37.4419
rfingers 7.12502
rthumb 1.5208 -67.4163
lclavicle 1.59028e-014 2.38542e-015
lhumerus -47.9197 -10.1192 86.1509
lradius 28.7206
lwrist 7.29236
lhand -29.6158 -22.785
lfingers 7.12502
lthumb -2.94641 7.17439
rfemur 1.67317 20.5353 2.61434
rtibia 50.0241
rfoot -13.5495 -1.00414
rtoes 27.1454
lfemur -19.6975 8.74298 -7.90022
ltibia 27.3806
lfoot -8.80993 1.12157
ltoes -35.1981
1201
root -24.651 16.0366 5.71178 -542.664 38.4579 172.273
lowerback 13.7939 3.26121 -4.0942
upperback 5.18443 4.20178 -0.977226
thorax -2.45018 2.25811 0.611461
lowerneck -19.3209 -7.64784 -3.88722
upperneck 15.162 -11.1161 9.45219
head 8.68903 -4.42489 2.33433
rclavicle 9.81996e-014 -2.34566e-014
rhumerus -33.7945 1.98554 -91.2043
rradius 49.7058
rwrist -4.41353
rhand -24.7862 -36.3875
rfingers 7.12502
rthumb 1.71805 -66.3603
lclavicle 9.81996e-014 -2.34566e-014
lhumerus -46.6659 -10.0052 84.5795
lradius 28.9375
lwrist 7.22085
lhand -29.9425 -22.7849
lfingers 7.12502
lthumb -3.26193 7.16989
rfemur 0.381957 19.1 2.19437
rtibia 50.9135
rfoot -14.6873 -3.17252
rtoes 26.351
lfemur -18.6042 8.48931 -8.34938
ltibia 26.5457
lfoot -9.3535 2.64374
ltoes -34.4134
1202
root -24.7516 16.1213 5.61295 -542.677 39.9027 172.394
lowerback 13.8543 3.21964 -4.03417
upperback 5.03425 4.12427 -1.07796
thorax -2.62662 2.21645 0.476318
lowerneck -19.2638 -7.75078 -4.01415
upperneck 15.1527 -11.2567 9.61277
head 8.70455 -4.48325 2.38879
rclavicle 2.88238e-014 1.19271e-015
rhumerus -34.2309 -0.597305 -89.5917
rradius 46.6005
rwrist -5.02599
rhand -22.8912 -36.9842
rfingers 7.12502
rthumb 3.54819 -66.9344
lclavicle 2.88238e-014 1.19271e-015
lhumerus -45.4735 -10.6813 83.1347
lradius 29.1814
lwrist 7.2837
lhand -30.0391 -21.4713
lfingers 7.12502
lthumb -3.35518 8.48209
rfemur -0.883938 17.7148 2.29017
rtibia 52.1698
rfoot -16.223 -4.06512
rtoes 28.0193
lfemur -17.5639 8.31197 -8.48396
ltibia 25.7255
lfoot -9.61933 3.95425
ltoes -33.7182
1203
root -24.8465 16.2079 5.51278 -542.6 41.2683 172.579
lowerback 13.9665 3.1355 -4.04335
upperback 4.71793 3.95947 -1.04368
thorax -3.01721 2.12651 0.525544
lowerneck -19.0497 -7.80828 -4.29592
upperneck 15.3033 -11.291 9.67051
head 8.74065 -4.51294 2.45262
rclavicle 7.13637e-014 -3.49861e-014
rhumerus -35.2613 -1.8064 -88.1373
rradius 43.2557
rwrist -4.34257
rhand -22.9119 -36.4374
rfingers 7.12502
rthumb 3.52822 -66.3879
lclavicle 7.13637e-014 -3.49861e-014
lhumerus -44.5728 -11.2699 81.8758
lradius 29.4791
lwrist 7.36627
lhand -30.1391 -22.6319
lfingers 7.12502
lthumb -3.45178 7.31994
rfemur -2.01339 16.2551 2.56715
rtibia 52.5654
rfoot -16.3802 -4.53674
rtoes 28.042
lfemur -16.5123 6.81943 -8.65963
ltibia 24.6928
lfoot -9.99838 6.09741
ltoes -31.1675
1204
root -24.9372 16.296 5.41492 -542.688 42.4668 172.493
lowerback 13.7425 2.95033 -4.28514
upperback 4.64578 3.67722 -1.03475
thorax -2.97527 1.97973 0.727641
lowerneck -19.0645 -7.74137 -4.48624
upperneck 15.2919 -11.1628 9.73219
head 8.74469 -4.46055 2.52158
rclavicle 1.07344e-014 1.31198e-014
rhumerus -35.8911 -2.39969 -86.6438
rradius 40.3235
rwrist -4.73208
rhand -22.3765 -35.3075
rfingers 7.12502
rthumb 4.04524 -65.2488
lclavicle 1.07344e-014 1.31198e-014
lhumerus -43.3554 -11.5531 80.4255
lradius 29.8899
lwrist 7.39243
lhand -29.8752 -22.6527
lfingers 7.12502
lthumb -3.19691 7.30305
rfemur -3.10683 14.1807 2.64542
rtibia 53.1865
rfoot -16.1957 -4.96743
rtoes 20.8423
lfemur -15.5522 8.20891 -8.95006
ltibia 23.824
lfoot -9.55098 5.58265
ltoes -33.3803
1205
root -25.0189 16.3848 5.31451 -542.869 43.7971 172.355
lowerback 13.5948 2.94719 -4.55608
upperback 4.51222 3.6216 -1.0668
thorax -3.04662 1.94652 0.858018
lowerneck -19.2983 -7.7457 -4.40488
upperneck 15.4763 -11.1894 9.64883
head 8.84019 -4.46274 2.46967
rclavicle -4.90004e-014 7.15625e-015
rhumerus -36.7947 -2.99956 -85.0403
rradius 37.8404
rwrist -4.74338
rhand -21.416 -35.1361
rfingers 7.12502
rthumb 4.97263 -65.0578
lclavicle -4.90004e-014 7.15625e-015
lhumerus -42.4127 -12.497 79.2299
lradius 30.514
lwrist 7.64291
lhand -29.7148 -22.3274
lfingers 7.12502
lthumb -3.04199 7.63065
rfemur -4.07788 13.0172 2.76926
rtibia 53.1654
rfoot -16.294 -2.71538
rtoes 23.1371
lfemur -14.4093 7.733 -9.29506
ltibia 22.6816
lfoot -9.88262 6.78453
ltoes -31.1758
1206
root -25.0934 16.4693 5.22054 -543.013 45.1547 172.247
lowerback 13.3701 2.88151 -4.97689
upperback 4.43637 3.47776 -0.955248
thorax -3.02693 1.86751 1.2424
lowerneck -20.0142 -7.65494 -4.54816
upperneck 15.8578 -11.0416 9.6005
head 9.09034 -4.37242 2.47766
rclavicle -3.42904e-014 -1.70955e-014
rhumerus -37.6306 -2.97521 -83.2877
rradius 35.8255
rwrist -3.69253
rhand -19.9253 -35.6143
rfingers 7.12502
rthumb 6.41195 -65.4973
lclavicle -3.42904e-014 -1.70955e-014
lhumerus -41.5988 -13.0876 78.2047
lradius 31.2201
lwrist 8.0108
lhand -29.932 -22.317
lfingers 7.12502
lthumb -3.25176 7.63792
rfemur -4.91617 12.4588 2.98922
rtibia 53.2844
rfoot -16.6874 0.270508
rtoes 29.732
lfemur -13.3396 7.60265 -9.53541
ltibia 21.665
lfoot -10.2839 7.54028
ltoes -28.3843
1207
root -25.1612 16.5576 5.12987 -543.373 46.3587 172.25
lowerback 13.4269 2.74165 -5.29119
upperback 4.45312 3.24945 -0.867808
thorax -3.0462 1.75251 1.54491
lowerneck -20.2887 -7.58947 -4.61466
upperneck 15.8912 -10.9498 9.68408
head 9.15287 -4.31541 2.52337
rclavicle 5.13858e-014 -2.38542e-014
rhumerus -38.5857 -2.44382 -81.8371
rradius 34.3948
rwrist -1.96724
rhand -19.1172 -35.5991
rfingers 7.12502
rthumb 7.19203 -65.4569
lclavicle 5.13858e-014 -2.38542e-014
lhumerus -40.8213 -13.3422 76.8617
lradius 31.9935
lwrist 8.38938
lhand -29.8686 -22.5015
lfingers 7.12502
lthumb -3.19054 7.45439
rfemur -5.41132 10.6435 3.55006
rtibia 53.5115
rfoot -17.1399 1.63303
rtoes 23.054
lfemur -11.9283 7.63847 -9.62769
ltibia 20.5913
lfoot -10.2276 7.67613
ltoes -26.6439
